<?xml version="1.0" encoding="us-ascii" standalone="no"?><svg xmlns="http://www.w3.org/2000/svg" xmlns:xlink="http://www.w3.org/1999/xlink" contentStyleType="text/css" height="895px" preserveAspectRatio="none" style="width:1526px;height:895px;background:#FFFFFF;" version="1.1" viewBox="0 0 1526 895" width="1526px" zoomAndPan="magnify"><defs/><g><rect fill="#FFFFFF" height="680.7344" style="stroke:#181818;stroke-width:1.0;" width="10" x="150.5" y="114.9609"/><rect fill="#FFFFFF" height="73.7031" style="stroke:#181818;stroke-width:1.0;" width="10" x="311" y="145.3125"/><rect fill="#FFFFFF" height="30.3516" style="stroke:#181818;stroke-width:1.0;" width="10" x="311" y="370.7734"/><rect fill="#FFFFFF" height="30.3516" style="stroke:#181818;stroke-width:1.0;" width="10" x="487.5" y="249.3672"/><rect fill="#FFFFFF" height="455.2734" style="stroke:#181818;stroke-width:1.0;" width="10" x="714" y="310.0703"/><rect fill="#FFFFFF" height="394.5703" style="stroke:#181818;stroke-width:1.0;" width="10" x="956.5" y="340.4219"/><rect fill="#FFFFFF" height="30.3516" style="stroke:#181818;stroke-width:1.0;" width="10" x="1130" y="431.4766"/><rect fill="#FFFFFF" height="151.7578" style="stroke:#181818;stroke-width:1.0;" width="10" x="1130" y="552.8828"/><rect fill="#FFFFFF" height="30.3516" style="stroke:#181818;stroke-width:1.0;" width="10" x="1249" y="492.1797"/><rect fill="#FFFFFF" height="30.3516" style="stroke:#181818;stroke-width:1.0;" width="10" x="1249" y="583.2344"/><rect fill="#FFFFFF" height="30.3516" style="stroke:#181818;stroke-width:1.0;" width="10" x="1390" y="643.9375"/><line style="stroke:#181818;stroke-width:0.5;stroke-dasharray:5.0,5.0;" x1="22" x2="22" y1="82.6094" y2="813.6953"/><line style="stroke:#181818;stroke-width:0.5;stroke-dasharray:5.0,5.0;" x1="155.5" x2="155.5" y1="82.6094" y2="813.6953"/><line style="stroke:#181818;stroke-width:0.5;stroke-dasharray:5.0,5.0;" x1="315.5" x2="315.5" y1="82.6094" y2="813.6953"/><line style="stroke:#181818;stroke-width:0.5;stroke-dasharray:5.0,5.0;" x1="492.5" x2="492.5" y1="82.6094" y2="813.6953"/><line style="stroke:#181818;stroke-width:0.5;stroke-dasharray:5.0,5.0;" x1="718.5" x2="718.5" y1="82.6094" y2="813.6953"/><line style="stroke:#181818;stroke-width:0.5;stroke-dasharray:5.0,5.0;" x1="961.5" x2="961.5" y1="82.6094" y2="813.6953"/><line style="stroke:#181818;stroke-width:0.5;stroke-dasharray:5.0,5.0;" x1="1134.5" x2="1134.5" y1="82.6094" y2="813.6953"/><line style="stroke:#181818;stroke-width:0.5;stroke-dasharray:5.0,5.0;" x1="1253.5" x2="1253.5" y1="82.6094" y2="813.6953"/><line style="stroke:#181818;stroke-width:0.5;stroke-dasharray:5.0,5.0;" x1="1394.5" x2="1394.5" y1="82.6094" y2="813.6953"/><line style="stroke:#181818;stroke-width:0.5;stroke-dasharray:5.0,5.0;" x1="1493.5" x2="1493.5" y1="82.6094" y2="813.6953"/><text fill="#000000" font-family="sans-serif" font-size="14" lengthAdjust="spacing" textLength="29" x="5" y="79.5332">User</text><ellipse cx="22.5" cy="13.5" fill="#E2E2F0" rx="8" ry="8" style="stroke:#181818;stroke-width:0.5;"/><path d="M22.5,21.5 L22.5,48.5 M9.5,29.5 L35.5,29.5 M22.5,48.5 L9.5,63.5 M22.5,48.5 L35.5,63.5 " fill="none" style="stroke:#181818;stroke-width:0.5;"/><text fill="#000000" font-family="sans-serif" font-size="14" lengthAdjust="spacing" textLength="29" x="5" y="827.2285">User</text><ellipse cx="22.5" cy="838.8047" fill="#E2E2F0" rx="8" ry="8" style="stroke:#181818;stroke-width:0.5;"/><path d="M22.5,846.8047 L22.5,873.8047 M9.5,854.8047 L35.5,854.8047 M22.5,873.8047 L9.5,888.8047 M22.5,873.8047 L35.5,888.8047 " fill="none" style="stroke:#181818;stroke-width:0.5;"/><rect fill="#E2E2F0" height="31.6094" rx="2.5" ry="2.5" style="stroke:#181818;stroke-width:0.5;" width="184" x="63.5" y="50"/><text fill="#000000" font-family="sans-serif" font-size="14" lengthAdjust="spacing" textLength="170" x="70.5" y="71.5332">ui.ChoreCreationController</text><rect fill="#E2E2F0" height="31.6094" rx="2.5" ry="2.5" style="stroke:#181818;stroke-width:0.5;" width="184" x="63.5" y="812.6953"/><text fill="#000000" font-family="sans-serif" font-size="14" lengthAdjust="spacing" textLength="170" x="70.5" y="834.2285">ui.ChoreCreationController</text><rect fill="#E2E2F0" height="31.6094" rx="2.5" ry="2.5" style="stroke:#181818;stroke-width:0.5;" width="117" x="257.5" y="50"/><text fill="#000000" font-family="sans-serif" font-size="14" lengthAdjust="spacing" textLength="103" x="264.5" y="71.5332">core.data.Chore</text><rect fill="#E2E2F0" height="31.6094" rx="2.5" ry="2.5" style="stroke:#181818;stroke-width:0.5;" width="117" x="257.5" y="812.6953"/><text fill="#000000" font-family="sans-serif" font-size="14" lengthAdjust="spacing" textLength="103" x="264.5" y="834.2285">core.data.Chore</text><rect fill="#E2E2F0" height="31.6094" rx="2.5" ry="2.5" style="stroke:#181818;stroke-width:0.5;" width="216" x="384.5" y="50"/><text fill="#000000" font-family="sans-serif" font-size="14" lengthAdjust="spacing" textLength="202" x="391.5" y="71.5332">ui.viewClasses.PersonMenuItem</text><rect fill="#E2E2F0" height="31.6094" rx="2.5" ry="2.5" style="stroke:#181818;stroke-width:0.5;" width="216" x="384.5" y="812.6953"/><text fill="#000000" font-family="sans-serif" font-size="14" lengthAdjust="spacing" textLength="202" x="391.5" y="834.2285">ui.viewClasses.PersonMenuItem</text><rect fill="#E2E2F0" height="31.6094" rx="2.5" ry="2.5" style="stroke:#181818;stroke-width:0.5;" width="217" x="610.5" y="50"/><text fill="#000000" font-family="sans-serif" font-size="14" lengthAdjust="spacing" textLength="203" x="617.5" y="71.5332">ui.dataAccessLayer.DataAccess</text><rect fill="#E2E2F0" height="31.6094" rx="2.5" ry="2.5" style="stroke:#181818;stroke-width:0.5;" width="217" x="610.5" y="812.6953"/><text fill="#000000" font-family="sans-serif" font-size="14" lengthAdjust="spacing" textLength="203" x="617.5" y="834.2285">ui.dataAccessLayer.DataAccess</text><rect fill="#E2E2F0" height="31.6094" rx="2.5" ry="2.5" style="stroke:#181818;stroke-width:0.5;" width="248" x="837.5" y="50"/><text fill="#000000" font-family="sans-serif" font-size="14" lengthAdjust="spacing" textLength="234" x="844.5" y="71.5332">springboot.restserver.StateController</text><rect fill="#E2E2F0" height="31.6094" rx="2.5" ry="2.5" style="stroke:#181818;stroke-width:0.5;" width="248" x="837.5" y="812.6953"/><text fill="#000000" font-family="sans-serif" font-size="14" lengthAdjust="spacing" textLength="234" x="844.5" y="834.2285">springboot.restserver.StateController</text><rect fill="#E2E2F0" height="31.6094" rx="2.5" ry="2.5" style="stroke:#181818;stroke-width:0.5;" width="79" x="1095.5" y="50"/><text fill="#000000" font-family="sans-serif" font-size="14" lengthAdjust="spacing" textLength="65" x="1102.5" y="71.5332">core.State</text><rect fill="#E2E2F0" height="31.6094" rx="2.5" ry="2.5" style="stroke:#181818;stroke-width:0.5;" width="79" x="1095.5" y="812.6953"/><text fill="#000000" font-family="sans-serif" font-size="14" lengthAdjust="spacing" textLength="65" x="1102.5" y="834.2285">core.State</text><rect fill="#E2E2F0" height="31.6094" rx="2.5" ry="2.5" style="stroke:#181818;stroke-width:0.5;" width="139" x="1184.5" y="50"/><text fill="#000000" font-family="sans-serif" font-size="14" lengthAdjust="spacing" textLength="125" x="1191.5" y="71.5332">core.data.Collective</text><rect fill="#E2E2F0" height="31.6094" rx="2.5" ry="2.5" style="stroke:#181818;stroke-width:0.5;" width="139" x="1184.5" y="812.6953"/><text fill="#000000" font-family="sans-serif" font-size="14" lengthAdjust="spacing" textLength="125" x="1191.5" y="834.2285">core.data.Collective</text><rect fill="#E2E2F0" height="31.6094" rx="2.5" ry="2.5" style="stroke:#181818;stroke-width:0.5;" width="123" x="1333.5" y="50"/><text fill="#000000" font-family="sans-serif" font-size="14" lengthAdjust="spacing" textLength="109" x="1340.5" y="71.5332">core.data.Person</text><rect fill="#E2E2F0" height="31.6094" rx="2.5" ry="2.5" style="stroke:#181818;stroke-width:0.5;" width="123" x="1333.5" y="812.6953"/><text fill="#000000" font-family="sans-serif" font-size="14" lengthAdjust="spacing" textLength="109" x="1340.5" y="834.2285">core.data.Person</text><rect fill="#E2E2F0" height="31.6094" rx="2.5" ry="2.5" style="stroke:#181818;stroke-width:0.5;" width="54" x="1466.5" y="50"/><text fill="#000000" font-family="sans-serif" font-size="14" lengthAdjust="spacing" textLength="40" x="1473.5" y="71.5332">ui.App</text><rect fill="#E2E2F0" height="31.6094" rx="2.5" ry="2.5" style="stroke:#181818;stroke-width:0.5;" width="54" x="1466.5" y="812.6953"/><text fill="#000000" font-family="sans-serif" font-size="14" lengthAdjust="spacing" textLength="40" x="1473.5" y="834.2285">ui.App</text><rect fill="#FFFFFF" height="680.7344" style="stroke:#181818;stroke-width:1.0;" width="10" x="150.5" y="114.9609"/><rect fill="#FFFFFF" height="73.7031" style="stroke:#181818;stroke-width:1.0;" width="10" x="311" y="145.3125"/><rect fill="#FFFFFF" height="30.3516" style="stroke:#181818;stroke-width:1.0;" width="10" x="311" y="370.7734"/><rect fill="#FFFFFF" height="30.3516" style="stroke:#181818;stroke-width:1.0;" width="10" x="487.5" y="249.3672"/><rect fill="#FFFFFF" height="455.2734" style="stroke:#181818;stroke-width:1.0;" width="10" x="714" y="310.0703"/><rect fill="#FFFFFF" height="394.5703" style="stroke:#181818;stroke-width:1.0;" width="10" x="956.5" y="340.4219"/><rect fill="#FFFFFF" height="30.3516" style="stroke:#181818;stroke-width:1.0;" width="10" x="1130" y="431.4766"/><rect fill="#FFFFFF" height="151.7578" style="stroke:#181818;stroke-width:1.0;" width="10" x="1130" y="552.8828"/><rect fill="#FFFFFF" height="30.3516" style="stroke:#181818;stroke-width:1.0;" width="10" x="1249" y="492.1797"/><rect fill="#FFFFFF" height="30.3516" style="stroke:#181818;stroke-width:1.0;" width="10" x="1249" y="583.2344"/><rect fill="#FFFFFF" height="30.3516" style="stroke:#181818;stroke-width:1.0;" width="10" x="1390" y="643.9375"/><polygon fill="#181818" points="138.5,110.9609,148.5,114.9609,138.5,118.9609,142.5,114.9609" style="stroke:#181818;stroke-width:1.0;"/><line style="stroke:#181818;stroke-width:1.0;" x1="22.5" x2="144.5" y1="114.9609" y2="114.9609"/><text fill="#000000" font-family="sans-serif" font-size="13" lengthAdjust="spacing" textLength="109" x="29.5" y="110.1045">click (createChore)</text><polygon fill="#181818" points="299,141.3125,309,145.3125,299,149.3125,303,145.3125" style="stroke:#181818;stroke-width:1.0;"/><line style="stroke:#181818;stroke-width:1.0;" x1="160.5" x2="305" y1="145.3125" y2="145.3125"/><text fill="#000000" font-family="sans-serif" font-size="13" lengthAdjust="spacing" textLength="39" x="167.5" y="140.4561">isValid</text><line style="stroke:#181818;stroke-width:1.0;" x1="321" x2="363" y1="175.6641" y2="175.6641"/><line style="stroke:#181818;stroke-width:1.0;" x1="363" x2="363" y1="175.6641" y2="188.6641"/><line style="stroke:#181818;stroke-width:1.0;" x1="322" x2="363" y1="188.6641" y2="188.6641"/><polygon fill="#181818" points="332,184.6641,322,188.6641,332,192.6641,328,188.6641" style="stroke:#181818;stroke-width:1.0;"/><text fill="#000000" font-family="sans-serif" font-size="13" lengthAdjust="spacing" textLength="98" x="328" y="170.8076">getRequirements</text><polygon fill="#181818" points="171.5,215.0156,161.5,219.0156,171.5,223.0156,167.5,219.0156" style="stroke:#181818;stroke-width:1.0;"/><line style="stroke:#181818;stroke-width:1.0;stroke-dasharray:2.0,2.0;" x1="165.5" x2="315" y1="219.0156" y2="219.0156"/><text fill="#000000" font-family="sans-serif" font-size="13" lengthAdjust="spacing" textLength="45" x="177.5" y="214.1592">boolean</text><polygon fill="#181818" points="475.5,245.3672,485.5,249.3672,475.5,253.3672,479.5,249.3672" style="stroke:#181818;stroke-width:1.0;"/><line style="stroke:#181818;stroke-width:1.0;" x1="160.5" x2="481.5" y1="249.3672" y2="249.3672"/><text fill="#000000" font-family="sans-serif" font-size="13" lengthAdjust="spacing" textLength="59" x="167.5" y="244.5107">getPerson</text><polygon fill="#181818" points="171.5,275.7188,161.5,279.7188,171.5,283.7188,167.5,279.7188" style="stroke:#181818;stroke-width:1.0;"/><line style="stroke:#181818;stroke-width:1.0;stroke-dasharray:2.0,2.0;" x1="165.5" x2="491.5" y1="279.7188" y2="279.7188"/><text fill="#000000" font-family="sans-serif" font-size="13" lengthAdjust="spacing" textLength="158" x="177.5" y="274.8623">core.data.RestrictedPerson</text><polygon fill="#181818" points="702,306.0703,712,310.0703,702,314.0703,706,310.0703" style="stroke:#181818;stroke-width:1.0;"/><line style="stroke:#181818;stroke-width:1.0;" x1="160.5" x2="708" y1="310.0703" y2="310.0703"/><text fill="#000000" font-family="sans-serif" font-size="13" lengthAdjust="spacing" textLength="55" x="167.5" y="305.2139">addChore</text><polygon fill="#181818" points="944.5,336.4219,954.5,340.4219,944.5,344.4219,948.5,340.4219" style="stroke:#181818;stroke-width:1.0;"/><line style="stroke:#181818;stroke-width:1.0;" x1="724" x2="950.5" y1="340.4219" y2="340.4219"/><text fill="#000000" font-family="sans-serif" font-size="13" lengthAdjust="spacing" textLength="55" x="731" y="335.5654">addChore</text><polygon fill="#181818" points="332,366.7734,322,370.7734,332,374.7734,328,370.7734" style="stroke:#181818;stroke-width:1.0;"/><line style="stroke:#181818;stroke-width:1.0;" x1="326" x2="955.5" y1="370.7734" y2="370.7734"/><text fill="#000000" font-family="sans-serif" font-size="13" lengthAdjust="spacing" textLength="106" x="338" y="365.917">decodeFromJSON</text><polygon fill="#181818" points="944.5,397.125,954.5,401.125,944.5,405.125,948.5,401.125" style="stroke:#181818;stroke-width:1.0;"/><line style="stroke:#181818;stroke-width:1.0;stroke-dasharray:2.0,2.0;" x1="316" x2="950.5" y1="401.125" y2="401.125"/><text fill="#000000" font-family="sans-serif" font-size="13" lengthAdjust="spacing" textLength="92" x="323" y="396.2686">core.data.Chore</text><polygon fill="#181818" points="1118,427.4766,1128,431.4766,1118,435.4766,1122,431.4766" style="stroke:#181818;stroke-width:1.0;"/><line style="stroke:#181818;stroke-width:1.0;" x1="966.5" x2="1124" y1="431.4766" y2="431.4766"/><text fill="#000000" font-family="sans-serif" font-size="13" lengthAdjust="spacing" textLength="115" x="973.5" y="426.6201">getCurrentCollective</text><polygon fill="#181818" points="977.5,457.8281,967.5,461.8281,977.5,465.8281,973.5,461.8281" style="stroke:#181818;stroke-width:1.0;"/><line style="stroke:#181818;stroke-width:1.0;stroke-dasharray:2.0,2.0;" x1="971.5" x2="1134" y1="461.8281" y2="461.8281"/><text fill="#000000" font-family="sans-serif" font-size="13" lengthAdjust="spacing" textLength="113" x="983.5" y="456.9717">core.data.Collective</text><polygon fill="#181818" points="1237,488.1797,1247,492.1797,1237,496.1797,1241,492.1797" style="stroke:#181818;stroke-width:1.0;"/><line style="stroke:#181818;stroke-width:1.0;" x1="966.5" x2="1243" y1="492.1797" y2="492.1797"/><text fill="#000000" font-family="sans-serif" font-size="13" lengthAdjust="spacing" textLength="59" x="973.5" y="487.3232">getPerson</text><polygon fill="#181818" points="977.5,518.5313,967.5,522.5313,977.5,526.5313,973.5,522.5313" style="stroke:#181818;stroke-width:1.0;"/><line style="stroke:#181818;stroke-width:1.0;stroke-dasharray:2.0,2.0;" x1="971.5" x2="1253" y1="522.5313" y2="522.5313"/><text fill="#000000" font-family="sans-serif" font-size="13" lengthAdjust="spacing" textLength="99" x="983.5" y="517.6748">core.data.Person</text><polygon fill="#181818" points="1118,548.8828,1128,552.8828,1118,556.8828,1122,552.8828" style="stroke:#181818;stroke-width:1.0;"/><line style="stroke:#181818;stroke-width:1.0;" x1="966.5" x2="1124" y1="552.8828" y2="552.8828"/><text fill="#000000" font-family="sans-serif" font-size="13" lengthAdjust="spacing" textLength="55" x="973.5" y="548.0264">addChore</text><polygon fill="#181818" points="1237,579.2344,1247,583.2344,1237,587.2344,1241,583.2344" style="stroke:#181818;stroke-width:1.0;"/><line style="stroke:#181818;stroke-width:1.0;" x1="1140" x2="1243" y1="583.2344" y2="583.2344"/><text fill="#000000" font-family="sans-serif" font-size="13" lengthAdjust="spacing" textLength="62" x="1147" y="578.3779">hasPerson</text><polygon fill="#181818" points="1151,609.5859,1141,613.5859,1151,617.5859,1147,613.5859" style="stroke:#181818;stroke-width:1.0;"/><line style="stroke:#181818;stroke-width:1.0;stroke-dasharray:2.0,2.0;" x1="1145" x2="1253" y1="613.5859" y2="613.5859"/><text fill="#000000" font-family="sans-serif" font-size="13" lengthAdjust="spacing" textLength="45" x="1157" y="608.7295">boolean</text><polygon fill="#181818" points="1378,639.9375,1388,643.9375,1378,647.9375,1382,643.9375" style="stroke:#181818;stroke-width:1.0;"/><line style="stroke:#181818;stroke-width:1.0;" x1="1140" x2="1384" y1="643.9375" y2="643.9375"/><text fill="#000000" font-family="sans-serif" font-size="13" lengthAdjust="spacing" textLength="55" x="1147" y="639.0811">addChore</text><polygon fill="#181818" points="1151,670.2891,1141,674.2891,1151,678.2891,1147,674.2891" style="stroke:#181818;stroke-width:1.0;"/><line style="stroke:#181818;stroke-width:1.0;stroke-dasharray:2.0,2.0;" x1="1145" x2="1394" y1="674.2891" y2="674.2891"/><text fill="#000000" font-family="sans-serif" font-size="13" lengthAdjust="spacing" textLength="45" x="1157" y="669.4326">boolean</text><polygon fill="#181818" points="977.5,700.6406,967.5,704.6406,977.5,708.6406,973.5,704.6406" style="stroke:#181818;stroke-width:1.0;"/><line style="stroke:#181818;stroke-width:1.0;stroke-dasharray:2.0,2.0;" x1="971.5" x2="1134" y1="704.6406" y2="704.6406"/><text fill="#000000" font-family="sans-serif" font-size="13" lengthAdjust="spacing" textLength="45" x="983.5" y="699.7842">boolean</text><polygon fill="#181818" points="735,730.9922,725,734.9922,735,738.9922,731,734.9922" style="stroke:#181818;stroke-width:1.0;"/><line style="stroke:#181818;stroke-width:1.0;stroke-dasharray:2.0,2.0;" x1="729" x2="960.5" y1="734.9922" y2="734.9922"/><text fill="#000000" font-family="sans-serif" font-size="13" lengthAdjust="spacing" textLength="45" x="741" y="730.1357">boolean</text><polygon fill="#181818" points="171.5,761.3438,161.5,765.3438,171.5,769.3438,167.5,765.3438" style="stroke:#181818;stroke-width:1.0;"/><line style="stroke:#181818;stroke-width:1.0;stroke-dasharray:2.0,2.0;" x1="165.5" x2="718" y1="765.3438" y2="765.3438"/><text fill="#000000" font-family="sans-serif" font-size="13" lengthAdjust="spacing" textLength="45" x="177.5" y="760.4873">boolean</text><polygon fill="#181818" points="1481.5,791.6953,1491.5,795.6953,1481.5,799.6953,1485.5,795.6953" style="stroke:#181818;stroke-width:1.0;"/><line style="stroke:#181818;stroke-width:1.0;" x1="155.5" x2="1487.5" y1="795.6953" y2="795.6953"/><text fill="#000000" font-family="sans-serif" font-size="13" lengthAdjust="spacing" textLength="74" x="162.5" y="790.8389">switchScene</text><!--SRC=[hLRTReCW5BwMf_1okvWFi8ibZSkIBVjBc-sUmKbBPg43RBEt7sfh4G4jcHSc2kVxEUVW4HCjPFwXG2BKtFERkxncHRaH4ae9M3F1Iy6r55LbLczpKZ7odL-HPWtQRTS84ytsvZ4IYR88gk4aPgMWMEDkao5YwXDNZAAiHtVse2npexn0Qz1B-AcPX2rmhNnXKwQ_XAW0SvHH2Ak96pIhUmQ7ii9AWIhUGIh1Nu3NZngsdShkdMKu6cDyn34dNPqTB45foOW6Uj9W6PrGCMcxOLWG0aezur-GnNt_R3HWIe_fi_d28IW_Nd5Wmwnsal6rgPmkfB5dUdjlzgnqqxPs5de59-HUo2o4FcmUdxT3AH11uK6AxTFgxNKin6srtBfylJpNUWWtqkLfRjltNPENjPJc69RDXeO40dRRaB7J3YdHv9ZJTJfaJIbfpp4uqx6IZbKvTJr3flbsDFYhErQHLkBmSPfHrc0cDrWvBYxBPZIZ0_sdJxqTEJTZCJkTV5-20auyVeSkZeZf3ZmCYMVCfVoNOpLZUjYy5kUy3tSxFsCp9EMl83wyfeVbOhSpoEh0DDci2710G_3GxzKV]--></g></svg>