<?xml version="1.0" encoding="us-ascii" standalone="no"?><svg xmlns="http://www.w3.org/2000/svg" xmlns:xlink="http://www.w3.org/1999/xlink" contentStyleType="text/css" height="457px" preserveAspectRatio="none" style="width:1740px;height:457px;background:#FFFFFF;" version="1.1" viewBox="0 0 1740 457" width="1740px" zoomAndPan="magnify"><defs/><g><!--cluster core--><g id="cluster_core"><rect fill="none" height="222" rx="2.5" ry="2.5" style="stroke:#181818;stroke-width:1.0;" width="444" x="751.17" y="138"/><rect fill="none" height="10" style="stroke:#181818;stroke-width:1.0;" width="15" x="1175.17" y="143"/><rect fill="none" height="2" style="stroke:#181818;stroke-width:1.0;" width="4" x="1173.17" y="145"/><rect fill="none" height="2" style="stroke:#181818;stroke-width:1.0;" width="4" x="1173.17" y="149"/><text fill="#000000" font-family="sans-serif" font-size="14" font-weight="bold" lengthAdjust="spacing" textLength="32" x="957.17" y="165.5332">core</text></g><!--cluster ui--><g id="cluster_ui"><rect fill="none" height="238" rx="2.5" ry="2.5" style="stroke:#181818;stroke-width:1.0;" width="585" x="44.17" y="7"/><rect fill="none" height="10" style="stroke:#181818;stroke-width:1.0;" width="15" x="609.17" y="12"/><rect fill="none" height="2" style="stroke:#181818;stroke-width:1.0;" width="4" x="607.17" y="14"/><rect fill="none" height="2" style="stroke:#181818;stroke-width:1.0;" width="4" x="607.17" y="18"/><text fill="#000000" font-family="sans-serif" font-size="14" font-weight="bold" lengthAdjust="spacing" textLength="13" x="330.17" y="34.5332">ui</text></g><!--cluster persistence--><g id="cluster_persistence"><rect fill="none" height="107" rx="2.5" ry="2.5" style="stroke:#181818;stroke-width:1.0;" width="344" x="1219.17" y="138"/><rect fill="none" height="10" style="stroke:#181818;stroke-width:1.0;" width="15" x="1543.17" y="143"/><rect fill="none" height="2" style="stroke:#181818;stroke-width:1.0;" width="4" x="1541.17" y="145"/><rect fill="none" height="2" style="stroke:#181818;stroke-width:1.0;" width="4" x="1541.17" y="149"/><text fill="#000000" font-family="sans-serif" font-size="14" font-weight="bold" lengthAdjust="spacing" textLength="84" x="1349.17" y="165.5332">persistence</text></g><!--cluster springbootRestserverComponent--><g id="cluster_springbootRestserverComponent"><rect fill="none" height="107" rx="2.5" ry="2.5" style="stroke:#181818;stroke-width:1.0;" width="328" x="1227.17" y="7"/><rect fill="none" height="10" style="stroke:#181818;stroke-width:1.0;" width="15" x="1535.17" y="12"/><rect fill="none" height="2" style="stroke:#181818;stroke-width:1.0;" width="4" x="1533.17" y="14"/><rect fill="none" height="2" style="stroke:#181818;stroke-width:1.0;" width="4" x="1533.17" y="18"/><text fill="#000000" font-family="sans-serif" font-size="14" font-weight="bold" lengthAdjust="spacing" textLength="156" x="1313.17" y="34.5332">springboot/restserver</text></g><path d="M770.17,174 L922.17,174 A3.75,3.75 0 0 1 924.67,176.5 L931.67,197.6094 L936.17,197.6094 A2.5,2.5 0 0 1 938.67,200.1094 L938.67,226.7188 A2.5,2.5 0 0 1 936.17,229.2188 L770.17,229.2188 A2.5,2.5 0 0 1 767.67,226.7188 L767.67,176.5 A2.5,2.5 0 0 1 770.17,174 " fill="#F1F1F1" style="stroke:#181818;stroke-width:0.5;"/><line style="stroke:#181818;stroke-width:0.5;" x1="767.67" x2="931.67" y1="197.6094" y2="197.6094"/><text fill="#000000" font-family="sans-serif" font-size="14" font-weight="bold" lengthAdjust="spacing" textLength="143" x="775.67" y="190.5332">chore-manager.core</text><path d="M770.17,289 L956.17,289 A3.75,3.75 0 0 1 958.67,291.5 L965.67,312.6094 L970.17,312.6094 A2.5,2.5 0 0 1 972.67,315.1094 L972.67,341.7188 A2.5,2.5 0 0 1 970.17,344.2188 L770.17,344.2188 A2.5,2.5 0 0 1 767.67,341.7188 L767.67,291.5 A2.5,2.5 0 0 1 770.17,289 " fill="#F1F1F1" style="stroke:#181818;stroke-width:0.5;"/><line style="stroke:#181818;stroke-width:0.5;" x1="767.67" x2="965.67" y1="312.6094" y2="312.6094"/><text fill="#000000" font-family="sans-serif" font-size="14" font-weight="bold" lengthAdjust="spacing" textLength="177" x="775.67" y="305.5332">chore-manager.core.data</text><path d="M976.17,174 L1162.17,174 A3.75,3.75 0 0 1 1164.67,176.5 L1171.67,197.6094 L1176.17,197.6094 A2.5,2.5 0 0 1 1178.67,200.1094 L1178.67,226.7188 A2.5,2.5 0 0 1 1176.17,229.2188 L976.17,229.2188 A2.5,2.5 0 0 1 973.67,226.7188 L973.67,176.5 A2.5,2.5 0 0 1 976.17,174 " fill="#F1F1F1" style="stroke:#181818;stroke-width:0.5;"/><line style="stroke:#181818;stroke-width:0.5;" x1="973.67" x2="1171.67" y1="197.6094" y2="197.6094"/><text fill="#000000" font-family="sans-serif" font-size="14" font-weight="bold" lengthAdjust="spacing" textLength="177" x="981.67" y="190.5332">chore-manager.core.json</text><path d="M270.67,43 L403.67,43 A3.75,3.75 0 0 1 406.17,45.5 L413.17,66.6094 L417.67,66.6094 A2.5,2.5 0 0 1 420.17,69.1094 L420.17,95.7188 A2.5,2.5 0 0 1 417.67,98.2188 L270.67,98.2188 A2.5,2.5 0 0 1 268.17,95.7188 L268.17,45.5 A2.5,2.5 0 0 1 270.67,43 " fill="#F1F1F1" style="stroke:#181818;stroke-width:0.5;"/><line style="stroke:#181818;stroke-width:0.5;" x1="268.17" x2="413.17" y1="66.6094" y2="66.6094"/><text fill="#000000" font-family="sans-serif" font-size="14" font-weight="bold" lengthAdjust="spacing" textLength="124" x="276.17" y="59.5332">chore-manager.ui</text><path d="M62.67,174 L317.67,174 A3.75,3.75 0 0 1 320.17,176.5 L327.17,197.6094 L331.67,197.6094 A2.5,2.5 0 0 1 334.17,200.1094 L334.17,226.7188 A2.5,2.5 0 0 1 331.67,229.2188 L62.67,229.2188 A2.5,2.5 0 0 1 60.17,226.7188 L60.17,176.5 A2.5,2.5 0 0 1 62.67,174 " fill="#F1F1F1" style="stroke:#181818;stroke-width:0.5;"/><line style="stroke:#181818;stroke-width:0.5;" x1="60.17" x2="327.17" y1="197.6094" y2="197.6094"/><text fill="#000000" font-family="sans-serif" font-size="14" font-weight="bold" lengthAdjust="spacing" textLength="246" x="68.17" y="190.5332">chore-manager.ui.dataAccessLayer</text><path d="M371.67,174 L596.67,174 A3.75,3.75 0 0 1 599.17,176.5 L606.17,197.6094 L610.67,197.6094 A2.5,2.5 0 0 1 613.17,200.1094 L613.17,226.7188 A2.5,2.5 0 0 1 610.67,229.2188 L371.67,229.2188 A2.5,2.5 0 0 1 369.17,226.7188 L369.17,176.5 A2.5,2.5 0 0 1 371.67,174 " fill="#F1F1F1" style="stroke:#181818;stroke-width:0.5;"/><line style="stroke:#181818;stroke-width:0.5;" x1="369.17" x2="606.17" y1="197.6094" y2="197.6094"/><text fill="#000000" font-family="sans-serif" font-size="14" font-weight="bold" lengthAdjust="spacing" textLength="216" x="377.17" y="190.5332">chore-manager.ui.viewClasses</text><path d="M1238.17,174 L1530.17,174 A3.75,3.75 0 0 1 1532.67,176.5 L1539.67,197.6094 L1544.17,197.6094 A2.5,2.5 0 0 1 1546.67,200.1094 L1546.67,226.7188 A2.5,2.5 0 0 1 1544.17,229.2188 L1238.17,229.2188 A2.5,2.5 0 0 1 1235.67,226.7188 L1235.67,176.5 A2.5,2.5 0 0 1 1238.17,174 " fill="#F1F1F1" style="stroke:#181818;stroke-width:0.5;"/><line style="stroke:#181818;stroke-width:0.5;" x1="1235.67" x2="1539.67" y1="197.6094" y2="197.6094"/><text fill="#000000" font-family="sans-serif" font-size="14" font-weight="bold" lengthAdjust="spacing" textLength="283" x="1243.67" y="190.5332">chore-manager.persistence.fileHandling</text><path d="M1246.17,43 L1522.17,43 A3.75,3.75 0 0 1 1524.67,45.5 L1531.67,66.6094 L1536.17,66.6094 A2.5,2.5 0 0 1 1538.67,69.1094 L1538.67,95.7188 A2.5,2.5 0 0 1 1536.17,98.2188 L1246.17,98.2188 A2.5,2.5 0 0 1 1243.67,95.7188 L1243.67,45.5 A2.5,2.5 0 0 1 1246.17,43 " fill="#F1F1F1" style="stroke:#181818;stroke-width:0.5;"/><line style="stroke:#181818;stroke-width:0.5;" x1="1243.67" x2="1531.67" y1="66.6094" y2="66.6094"/><text fill="#000000" font-family="sans-serif" font-size="14" font-weight="bold" lengthAdjust="spacing" textLength="267" x="1251.67" y="59.5332">chore-manager.springboot.restserver</text><!--entity json--><g id="elem_json"><rect fill="#F1F1F1" height="47.6094" rx="2.5" ry="2.5" style="stroke:#181818;stroke-width:0.5;" width="74" x="1039.17" y="404"/><rect fill="#F1F1F1" height="10" style="stroke:#181818;stroke-width:0.5;" width="15" x="1093.17" y="409"/><rect fill="#F1F1F1" height="2" style="stroke:#181818;stroke-width:0.5;" width="4" x="1091.17" y="411"/><rect fill="#F1F1F1" height="2" style="stroke:#181818;stroke-width:0.5;" width="4" x="1091.17" y="415"/><text fill="#000000" font-family="sans-serif" font-size="14" lengthAdjust="spacing" textLength="26" x="1058.17" y="438.5332">json</text></g><!--entity javafx--><g id="elem_javafx"><rect fill="#F1F1F1" height="47.6094" rx="2.5" ry="2.5" style="stroke:#181818;stroke-width:0.5;" width="84" x="648.17" y="177.5"/><rect fill="#F1F1F1" height="10" style="stroke:#181818;stroke-width:0.5;" width="15" x="712.17" y="182.5"/><rect fill="#F1F1F1" height="2" style="stroke:#181818;stroke-width:0.5;" width="4" x="710.17" y="184.5"/><rect fill="#F1F1F1" height="2" style="stroke:#181818;stroke-width:0.5;" width="4" x="710.17" y="188.5"/><text fill="#000000" font-family="sans-serif" font-size="14" lengthAdjust="spacing" textLength="36" x="667.17" y="212.0332">javafx</text></g><!--entity springframework--><g id="elem_springframework"><rect fill="#F1F1F1" height="47.6094" rx="2.5" ry="2.5" style="stroke:#181818;stroke-width:0.5;" width="152" x="1582.17" y="177.5"/><rect fill="#F1F1F1" height="10" style="stroke:#181818;stroke-width:0.5;" width="15" x="1714.17" y="182.5"/><rect fill="#F1F1F1" height="2" style="stroke:#181818;stroke-width:0.5;" width="4" x="1712.17" y="184.5"/><rect fill="#F1F1F1" height="2" style="stroke:#181818;stroke-width:0.5;" width="4" x="1712.17" y="188.5"/><text fill="#000000" font-family="sans-serif" font-size="14" lengthAdjust="spacing" textLength="104" x="1601.17" y="212.0332">springframework</text></g><!--link springbootRestserverPackage to corePackage--><g id="link_springbootRestserverPackage_corePackage"><path codeLine="49" d="M1243.47,74.4 C1157.24,80.21 1047.75,94.8 956.17,130 C929.68,140.18 908.0359,154.6879 888.6159,170.0479 " fill="none" id="springbootRestserverPackage-to-corePackage" style="stroke:#181818;stroke-width:1.0;stroke-dasharray:7.0,7.0;"/><polygon fill="#181818" points="883.91,173.77,893.4503,171.3241,887.8316,170.6682,888.4875,165.0495,883.91,173.77" style="stroke:#181818;stroke-width:1.0;"/></g><!--link springbootRestserverPackage to fileHandling--><g id="link_springbootRestserverPackage_fileHandling"><path codeLine="50" d="M1391.17,98.23 C1391.17,120.37 1391.17,145.68 1391.17,167.81 " fill="none" id="springbootRestserverPackage-to-fileHandling" style="stroke:#181818;stroke-width:1.0;stroke-dasharray:7.0,7.0;"/><polygon fill="#181818" points="1391.17,173.81,1395.17,164.81,1391.17,168.81,1387.17,164.81,1391.17,173.81" style="stroke:#181818;stroke-width:1.0;"/></g><!--link fileHandling to data--><g id="link_fileHandling_data"><path codeLine="51" d="M1293.26,229 C1262.01,237.12 1227.23,245.8 1195.17,253 C1121.18,269.63 1042.9827,284.6537 978.8727,296.3437 " fill="none" id="fileHandling-to-data" style="stroke:#181818;stroke-width:1.0;stroke-dasharray:7.0,7.0;"/><polygon fill="#181818" points="972.97,297.42,982.5416,299.7407,977.8889,296.5231,981.1065,291.8704,972.97,297.42" style="stroke:#181818;stroke-width:1.0;"/></g><!--link fileHandling to json--><g id="link_fileHandling_json"><path codeLine="52" d="M1363.98,229.18 C1327.61,263.95 1260.15,325.36 1195.17,368 C1169.15,385.08 1142.9556,398.097 1118.8256,408.907 " fill="none" id="fileHandling-to-json" style="stroke:#181818;stroke-width:1.0;stroke-dasharray:7.0,7.0;"/><polygon fill="#181818" points="1113.35,411.36,1123.1988,411.3309,1117.913,409.3158,1119.9281,404.03,1113.35,411.36" style="stroke:#181818;stroke-width:1.0;"/></g><!--link json to json--><g id="link_json_json"><path codeLine="53" d="M1076.17,229.13 C1076.17,273.5 1076.17,355.81 1076.17,397.79 " fill="none" id="json-to-json" style="stroke:#181818;stroke-width:1.0;stroke-dasharray:7.0,7.0;"/><polygon fill="#181818" points="1076.17,403.79,1080.17,394.79,1076.17,398.79,1072.17,394.79,1076.17,403.79" style="stroke:#181818;stroke-width:1.0;"/></g><!--link corePackage to data--><g id="link_corePackage_data"><path codeLine="54" d="M857.2,229.28 C859.91,247.29 862.5785,265.0066 865.2785,282.9766 " fill="none" id="corePackage-to-data" style="stroke:#181818;stroke-width:1.0;stroke-dasharray:7.0,7.0;"/><polygon fill="#181818" points="866.17,288.91,868.7884,279.4156,865.4271,283.9655,860.8772,280.6042,866.17,288.91" style="stroke:#181818;stroke-width:1.0;"/></g><!--link data to json--><g id="link_data_json"><path codeLine="55" d="M920.04,344.01 C956.72,363.5 1000.472,386.7637 1033.732,404.4437 " fill="none" id="data-to-json" style="stroke:#181818;stroke-width:1.0;stroke-dasharray:7.0,7.0;"/><polygon fill="#181818" points="1039.03,407.26,1032.9605,399.5036,1034.615,404.9131,1029.2055,406.5676,1039.03,407.26" style="stroke:#181818;stroke-width:1.0;"/></g><!--link dataAccessLayer to data--><g id="link_dataAccessLayer_data"><path codeLine="56" d="M268.91,229.1 C294.84,237.85 324.54,246.89 352.17,253 C494.35,284.42 656.2373,300.5752 761.4673,308.5752 " fill="none" id="dataAccessLayer-to-data" style="stroke:#181818;stroke-width:1.0;stroke-dasharray:7.0,7.0;"/><polygon fill="#181818" points="767.45,309.03,758.7791,304.3593,762.4644,308.651,758.1727,312.3362,767.45,309.03" style="stroke:#181818;stroke-width:1.0;"/></g><!--link uiPackage to javafx--><g id="link_uiPackage_javafx"><path codeLine="57" d="M420.34,73.87 C480.65,78.75 565.11,92.46 629.17,130 C648.72,141.45 661.7284,156.5274 672.5884,172.3074 " fill="none" id="uiPackage-to-javafx" style="stroke:#181818;stroke-width:1.0;stroke-dasharray:7.0,7.0;"/><polygon fill="#181818" points="675.99,177.25,674.1827,167.5684,673.1554,173.1312,667.5926,172.1038,675.99,177.25" style="stroke:#181818;stroke-width:1.0;"/></g><!--link uiPackage to dataAccessLayer--><g id="link_uiPackage_dataAccessLayer"><path codeLine="58" d="M313.72,98.23 C288.49,120.37 257.3199,147.7226 232.0999,169.8526 " fill="none" id="uiPackage-to-dataAccessLayer" style="stroke:#181818;stroke-width:1.0;stroke-dasharray:7.0,7.0;"/><polygon fill="#181818" points="227.59,173.81,236.9931,170.8806,231.3483,170.5122,231.7166,164.8674,227.59,173.81" style="stroke:#181818;stroke-width:1.0;"/></g><!--link uiPackage to data--><g id="link_uiPackage_data"><path codeLine="59" d="M268.06,75.55 C188.43,81.56 71.15,96.06 43.17,130 C8.4,172.18 6,212.91 43.17,253 C91.48,305.1 550.9001,313.9715 761.5301,315.3215 " fill="none" id="uiPackage-to-data" style="stroke:#181818;stroke-width:1.0;stroke-dasharray:7.0,7.0;"/><polygon fill="#181818" points="767.53,315.36,758.5558,311.3024,762.5301,315.328,758.5045,319.3022,767.53,315.36" style="stroke:#181818;stroke-width:1.0;"/></g><!--link uiPackage to viewClasses--><g id="link_uiPackage_viewClasses"><path codeLine="60" d="M374.63,98.23 C399.86,120.37 431.0309,147.7218 456.2409,169.8518 " fill="none" id="uiPackage-to-viewClasses" style="stroke:#181818;stroke-width:1.0;stroke-dasharray:7.0,7.0;"/><polygon fill="#181818" points="460.75,173.81,456.6251,164.8665,456.9924,170.5115,451.3475,170.8787,460.75,173.81" style="stroke:#181818;stroke-width:1.0;"/></g><!--link springbootRestserverPackage to springframework--><g id="link_springbootRestserverPackage_springframework"><path codeLine="61" d="M1486.65,98.11 C1512.18,106.79 1539.29,117.47 1563.17,130 C1588.09,143.07 1608.9241,158.5188 1627.2041,173.6188 " fill="none" id="springbootRestserverPackage-to-springframework" style="stroke:#181818;stroke-width:1.0;stroke-dasharray:7.0,7.0;"/><polygon fill="#181818" points="1631.83,177.44,1627.4386,168.6243,1627.9751,174.2557,1622.3437,174.7922,1631.83,177.44" style="stroke:#181818;stroke-width:1.0;"/></g><!--SRC=[bLFBSeGW4Bpp5LRk8N-GgjHUSiWXbJzWSLpPLR0OrqqgbNyFeij351Cl3artCp0pjIYXu4Bp1aWznYsqHz1825TjfoJ8ldWekD9WVWodw9lya8xn2pkDAAyDzjWoQPQQnbIxV9-feooheoNhMI2sottL6PKCL7PfLU4LhcAYc7_MqVDC-AVC3NDCz8LpG7nZNw2TmnBVyna4t0uDGmHq7W6MNAepbHBOW-JpcuT0zh20I2lHm2kJPIFaAR69TvCCiDC6FohLFsd07a4Fz_lxhG-tSt3IR7PUIl_bIjTseoA6kVk-MM-PCnjOzJapfdZZ_fLcBToKleGvEj2ASfbH-bm4WxBBtIeFsQpR_GJRaNdQ-1R43r84BHEUxFoiEl9AxyUQQBoip3vmYgTEAITZ6m_GxiikAaVCzmi0]--></g></svg>